<svg width="96" height="97" viewBox="0 0 96 97" fill="none" xmlns="http://www.w3.org/2000/svg">
<path d="M96 39.2903C96 34.3069 92.8924 29.7663 88.1806 27.5903C88.2302 27.1418 88.2581 26.6874 88.2581 26.2258C88.2581 19.0215 82.0057 13.1613 74.3226 13.1613C74.2049 13.1613 74.0888 13.1802 73.9695 13.1831C72.5652 7.3621 67.0142 3 60.3871 3C54.9941 3 50.3148 5.89306 48 10.1071C45.6852 5.89306 41.0059 3 35.6129 3C29.0354 3 23.4395 7.28952 22.0258 13.1773C21.9097 13.1758 21.7951 13.1613 21.6774 13.1613C13.9943 13.1613 7.74194 19.0215 7.74194 26.2258C7.74194 26.6685 7.76671 27.1156 7.81781 27.5642C3.09523 29.7387 0 34.3113 0 39.2903C0 42.6334 1.35794 45.6774 3.56903 47.9898C1.28826 50.3734 0 53.474 0 56.7097C0 61.6916 3.10761 66.2337 7.81936 68.4097C7.76981 68.8582 7.74194 69.3126 7.74194 69.7742C7.74194 76.9786 13.9943 82.8387 21.6774 82.8387C21.7951 82.8387 21.9097 82.8242 22.0258 82.8227C23.4395 88.7105 29.0354 93 35.6129 93C41.0059 93 45.6852 90.1069 48 85.8929C50.3148 90.1069 54.9941 93 60.3871 93C67.0142 93 72.5652 88.6379 73.9695 82.8169C74.0888 82.8198 74.2049 82.8387 74.3226 82.8387C82.0057 82.8387 88.2581 76.9786 88.2581 69.7742C88.2581 69.3315 88.2317 68.8858 88.1822 68.4358C92.9048 66.2627 96 61.6887 96 56.7097C96 53.3666 94.6421 50.3226 92.431 48.0102C94.7117 45.6266 96 42.526 96 39.2903ZM85.9246 66.1931L84.7092 66.6286L84.9569 67.8261C85.0932 68.4823 85.1613 69.1384 85.1613 69.7742C85.1613 75.376 80.2994 79.9355 74.3226 79.9355C74.3226 72.7311 68.0702 66.871 60.3871 66.871V69.7742C66.3639 69.7742 71.2258 74.3337 71.2258 79.9355C71.2258 85.5373 66.3639 90.0968 60.3871 90.0968C54.4103 90.0968 49.5484 85.5373 49.5484 79.9355V24.7742H46.4516V79.9355C46.4516 85.5373 41.5897 90.0968 35.6129 90.0968C30.5853 90.0968 26.3025 86.8756 25.1102 82.4206C31.1365 80.9821 35.6129 75.8652 35.6129 69.7742H32.5161C32.5161 75.376 27.6542 79.9355 21.6774 79.9355C15.7006 79.9355 10.8387 75.376 10.8387 69.7742C10.8387 64.1724 15.7006 59.6129 21.6774 59.6129V56.7097C15.5892 56.7097 10.4129 60.3953 8.52077 65.5065C5.22116 63.7123 3.09677 60.3532 3.09677 56.7097C3.09677 54.1926 4.09858 51.7815 5.87303 49.9263C8.15226 51.449 10.9301 52.3548 13.9355 52.3548V49.4516C7.95871 49.4516 3.09677 44.8921 3.09677 39.2903C3.09677 35.1126 5.90245 31.3006 10.0754 29.8069L11.2924 29.37L11.0431 28.1724C10.9068 27.5206 10.8387 26.8645 10.8387 26.2258C10.8387 20.624 15.7006 16.0645 21.6774 16.0645C27.6542 16.0645 32.5161 20.624 32.5161 26.2258H35.6129C35.6129 20.1348 31.1365 15.0179 25.1102 13.5794C26.3025 9.12436 30.5853 5.90323 35.6129 5.90323C41.5897 5.90323 46.4516 10.4627 46.4516 16.0645V21.871H49.5484V16.0645C49.5484 10.4627 54.4103 5.90323 60.3871 5.90323C66.3639 5.90323 71.2258 10.4627 71.2258 16.0645C71.2258 21.6663 66.3639 26.2258 60.3871 26.2258V29.129C68.0702 29.129 74.3226 23.2689 74.3226 16.0645C80.2994 16.0645 85.1613 20.624 85.1613 26.2258C85.1613 31.8276 80.2994 36.3871 74.3226 36.3871V39.2903C80.4108 39.2903 85.5871 35.6047 87.4792 30.4921C90.7788 32.2863 92.9032 35.6468 92.9032 39.2903C92.9032 41.8074 91.9014 44.2186 90.127 46.0737C87.8477 44.551 85.0699 43.6452 82.0645 43.6452C74.3814 43.6452 68.129 49.5053 68.129 56.7097H71.2258C71.2258 51.1079 76.0877 46.5484 82.0645 46.5484C88.0413 46.5484 92.9032 51.1079 92.9032 56.7097C92.9032 60.8874 90.0975 64.6994 85.9246 66.1931Z" fill="#FF9900"/>
<path d="M65.0322 16.0645H68.129C68.129 12.0624 64.6559 8.80646 60.387 8.80646V11.7097C62.9481 11.7097 65.0322 13.6636 65.0322 16.0645Z" fill="#FF9900"/>
<path d="M55.742 79.9355H52.6452C52.6452 83.9376 56.1182 87.1936 60.3871 87.1936V84.2903C57.8261 84.2903 55.742 82.3365 55.742 79.9355Z" fill="#FF9900"/>
<path d="M82.0645 61.0645V63.9677C86.3334 63.9677 89.8064 60.7118 89.8064 56.7097H86.7096C86.7096 59.1106 84.6255 61.0645 82.0645 61.0645Z" fill="#FF9900"/>
<path d="M58.8387 55.2581H55.7419C55.7419 60.0614 59.9086 63.9677 65.0322 63.9677V61.0645C61.6165 61.0645 58.8387 58.4603 58.8387 55.2581Z" fill="#FF9900"/>
<path d="M61.9355 34.9355V32.0323C56.8119 32.0323 52.6452 35.9385 52.6452 40.7419H55.742C55.742 37.5397 58.5198 34.9355 61.9355 34.9355Z" fill="#FF9900"/>
<path d="M37.1612 55.2581H34.0645C34.0645 60.0614 38.2312 63.9677 43.3548 63.9677V61.0645C39.939 61.0645 37.1612 58.4603 37.1612 55.2581Z" fill="#FF9900"/>
<path d="M60.3871 42.1935H57.2903C57.2903 46.9969 61.4571 50.9032 66.5807 50.9032V48C63.1649 48 60.3871 45.3958 60.3871 42.1935Z" fill="#FF9900"/>
<path d="M40.2581 34.9355V32.0323C35.1345 32.0323 30.9678 35.9385 30.9678 40.7419H34.0645C34.0645 37.5397 36.8424 34.9355 40.2581 34.9355Z" fill="#FF9900"/>
<path d="M20.1291 53.8065H23.2259C23.2259 50.6042 26.0037 48 29.4194 48V45.0968C24.2958 45.0968 20.1291 49.0031 20.1291 53.8065Z" fill="#FF9900"/>
<path d="M21.6774 74.129V77.0322C25.9463 77.0322 29.4194 73.7763 29.4194 69.7742H26.3226C26.3226 72.1751 24.2385 74.129 21.6774 74.129Z" fill="#FF9900"/>
<path d="M6.19354 39.2903H9.29032C9.29032 36.8894 11.3744 34.9355 13.9355 34.9355V32.0323C9.66657 32.0323 6.19354 35.2882 6.19354 39.2903Z" fill="#FF9900"/>
<path d="M21.6774 18.9677V21.871C24.2385 21.871 26.3226 23.8248 26.3226 26.2258H29.4194C29.4194 22.2237 25.9463 18.9677 21.6774 18.9677Z" fill="#FF9900"/>
<path d="M35.613 8.80646V11.7097C38.174 11.7097 40.2581 13.6636 40.2581 16.0645H43.3549C43.3549 12.0624 39.8819 8.80646 35.613 8.80646Z" fill="#FF9900"/>
</svg>
