<svg width="96" height="90" viewBox="0 0 96 90" fill="none" xmlns="http://www.w3.org/2000/svg">
<g clip-path="url(#clip0_43_52)">
<path d="M95.3673 47.088C94.9702 47.3724 94.0276 47.5128 93.6087 47.3112C93.0895 47.0664 92.6007 46.4256 92.5484 45.9252C92.3695 44.1396 92.5047 42.336 92.2996 40.554C91.0516 29.79 85.5055 20.7432 75.7004 13.482C67.4618 7.38001 57.7091 3.97441 46.656 3.02761C45.4211 2.91961 44.1731 2.89441 43.4226 2.85841C41.9389 2.85841 40.9484 2.85121 39.9578 2.85841C38.6575 2.86921 37.8458 2.37241 37.776 1.50481C37.7106 0.669608 38.4829 -0.0179918 39.7789 0.0036082C42.7811 0.0504082 45.8051 0.0432082 48.7767 0.352808C58.6604 1.37881 67.5796 4.39921 75.3644 9.48241C86.4436 16.7184 93.2204 26.064 95.3673 37.53C95.8691 40.2048 95.8647 42.9444 96.0044 45.6588C96.0262 46.1412 95.7862 46.7928 95.3673 47.088ZM45.3556 33.1308C49.2611 30.9636 52.7215 31.032 55.3833 33.2064C57.4516 34.8984 58.5164 38.196 55.2218 41.4396C55.5666 41.5908 56.0378 41.6988 56.3433 41.94C58.8 43.9092 61.2393 45.8964 63.6655 47.8944C65.8604 49.698 66.2487 52.398 64.6866 54.486C64.0015 55.4004 63.0851 55.8396 61.7411 55.944C54.2575 56.5272 46.944 57.7368 40.2066 60.5772C37.6538 61.6536 35.3193 63.0828 32.9062 64.3752C32.4873 64.5984 32.1644 64.9332 31.7367 65.2608C33.8007 67.3848 35.8211 69.4656 37.8415 71.5464C40.4858 74.2608 43.1346 76.9752 45.7746 79.6932C47.184 81.1404 47.1229 82.8324 45.552 84.1536C43.6626 85.7412 41.7382 87.3036 39.792 88.848C38.1295 90.1692 35.5244 90.36 33.2466 89.3772C31.9156 88.8048 30.8029 88.0092 30.192 86.8824C29.7906 86.1408 29.2276 85.5756 28.4335 85.1256C28.3462 85.0752 28.2546 85.0176 28.1935 84.9456C26.6444 83.1708 25.0953 81.3924 23.5549 79.614C23.3891 79.4232 23.3193 79.1316 23.1011 79.02C21.3993 78.1488 20.2953 76.878 19.3746 75.222C18.8378 75.7116 18.432 76.1292 17.9607 76.4928C14.9149 78.8328 10.4771 78.876 7.42692 76.5432C5.60728 75.1572 3.84437 73.71 2.13819 72.234C-0.750536 69.732 -0.706899 66.042 2.25601 63.5832C6.03055 60.444 9.80946 57.3048 13.6931 54.2592C19.8982 49.3956 23.5942 43.4124 25.5447 36.6804C26.3826 33.7824 26.8364 30.8088 27.3862 27.8604C27.6742 26.3196 29.0182 25.1892 31.1869 24.876C33.6 24.5268 35.6684 25.0272 37.4051 26.4672C39.8007 28.4472 42.2269 30.402 44.6313 32.3748C44.9149 32.6088 45.1287 32.8932 45.3556 33.1308ZM52.7869 35.1756C51.4822 34.1316 49.5404 34.1208 48.2836 35.0712C49.8545 36.3708 51.4298 37.674 53.0051 38.97C54.2095 37.8072 54.1396 36.2556 52.7869 35.1756ZM23.1666 74.916C23.6946 75.5928 24.576 76.0824 25.2655 76.6836C25.7236 77.0796 26.2866 77.4648 26.5178 77.9436C26.9236 78.7896 27.5302 79.416 28.4335 79.9452C28.9396 80.244 29.2451 80.7876 29.6029 81.2412C30.1047 81.8784 30.4015 82.7424 31.0996 83.1312C32.1556 83.7252 32.7753 84.3804 33.216 85.3668C34.0538 87.2316 36.3884 87.57 38.0771 86.1948C39.6044 84.9492 41.1098 83.6856 42.672 82.4688C43.248 82.0224 43.2785 81.7092 42.768 81.2052C41.0051 79.4484 39.2946 77.6556 37.5666 75.8808C34.8131 73.0512 32.0596 70.2216 29.2276 67.3164C27.2989 68.886 25.488 70.362 23.6771 71.8416C22.3506 72.9216 22.1586 73.6128 23.1666 74.916ZM34.8611 28.4688C34.0844 27.8316 33.1942 27.5328 32.0858 27.6732C31.3004 27.774 30.96 28.0548 30.8291 28.7676C30.336 31.5144 29.8604 34.272 29.0967 36.972C26.8931 44.7876 22.4727 51.5952 15.1855 57.114C11.6422 59.796 8.3171 62.6724 4.91346 65.4768C3.07637 66.9888 3.06765 68.9148 4.87855 70.4124C6.49746 71.7552 8.08583 73.1304 9.8051 74.3796C10.5469 74.9232 11.5898 75.1896 12.4931 75.582C12.5411 75.4992 12.5891 75.4164 12.6371 75.3336C14.0116 75.4164 15.0109 74.862 15.9273 74.1132C20.0684 70.7256 24.2706 67.3884 28.3506 63.9504C32.016 60.8652 36.384 58.6872 41.1666 57.0096C47.4502 54.81 54.0698 53.6976 60.8378 53.1072C61.6364 53.0388 61.9026 52.74 62.0422 52.1892C62.304 51.1272 61.7193 50.3568 60.8422 49.644C56.1426 45.8244 51.4604 41.9904 46.7651 38.1672C42.7986 34.9344 38.8233 31.7088 34.8611 28.4688ZM47.376 17.5788C45.0458 17.2656 42.6327 17.3268 40.2546 17.2656C39.0502 17.2368 38.2778 16.8696 38.112 16.0884C37.9113 15.1524 38.6007 14.4036 39.9316 14.4108C42.4887 14.4288 45.0895 14.3712 47.5986 14.7096C58.7651 16.2036 67.3615 20.9376 73.2698 28.8036C77.1273 33.9408 78.7287 39.5892 78.4015 45.6012C78.3447 46.6632 77.6291 47.2968 76.5905 47.2752C75.4996 47.2572 74.8713 46.5804 74.8887 45.4536C74.8975 44.946 74.8887 44.4348 74.8887 43.9272C74.8189 30.816 63.264 19.7136 47.376 17.5788Z" fill="#FF9900"/>
</g>
<defs>
<clipPath id="clip0_43_52">
<rect width="96" height="90" fill="white"/>
</clipPath>
</defs>
</svg>
