<svg width="86" height="96" viewBox="0 0 86 96" fill="none" xmlns="http://www.w3.org/2000/svg">
<g clip-path="url(#clip0_77_4)">
<path d="M16.8881 88.3626C16.8405 88.3626 16.7929 88.361 16.7453 88.3573C0.949131 87.2361 1.29912 78.8529 1.50832 73.8432C1.53807 73.1408 1.56682 72.4801 1.55095 71.8838L0.0141706 11.8281C-0.0701046 8.52602 0.120258 4.80515 3.45855 2.43761C6.26541 0.447083 10.1797 0.211163 13.9473 0.139097C34.108 -0.237161 54.5194 0.150476 74.6156 1.29518C76.7185 1.41504 79.5997 1.57889 81.8593 2.81539C85.5645 4.84308 86.0384 8.51388 85.9977 12.1794L85.3007 75.4583C85.269 78.3174 85.0162 81.2804 82.367 83.3362C79.6721 85.4276 75.499 85.6362 72.7368 85.775L32.9926 87.7625C32.1548 87.7929 31.428 87.3187 31.3735 86.6755C31.319 86.0337 31.9545 85.4792 32.7943 85.4367L72.5385 83.4492C75.5833 83.2967 78.4605 83.0479 80.1976 81.7007C82.0497 80.2631 82.2272 77.9184 82.2549 75.4385L82.9519 12.1596C82.9856 9.12302 82.6614 6.11902 80.0876 4.71033C78.64 3.91913 76.6511 3.74769 74.3896 3.61949C54.3935 2.47933 34.0872 2.09397 14.0227 2.46947C10.7052 2.53243 7.55829 2.70767 5.52875 4.14746C3.11451 5.85883 2.98463 8.85752 3.05998 11.7826L4.59676 71.8383C4.61263 72.471 4.58387 73.1727 4.55314 73.9183C4.33303 79.1677 4.08417 85.1181 17.0269 86.0375C17.8647 86.0967 18.4804 86.6641 18.402 87.3051C18.3297 87.9089 17.6654 88.3626 16.8881 88.3626Z" fill="#FF9900"/>
<path d="M19.0574 33.7209C17.8736 33.7209 15.1014 33.7209 13.5944 32.1893C12.9678 31.5498 12.7308 30.8254 12.5682 30.1366C12.0645 28.0156 11.3051 24.8083 13.5587 22.9111C14.2805 22.3034 15.1788 21.5479 36.1474 21.5479C46.0423 21.5479 57.2718 21.7208 64.7029 21.8346C66.2664 21.8589 68.8829 21.8983 70.6497 23.1933C72.474 24.5306 72.5861 26.6076 72.6535 27.8494C72.712 28.9471 72.8349 31.2312 70.732 32.4965C69.338 33.3348 67.5444 33.3484 66.3576 33.3575L19.0574 33.7209ZM15.7032 24.5792C14.6087 25.6852 15.2045 28.1999 15.5644 29.7216C15.6606 30.1282 15.7835 30.5386 16.0294 30.789C16.5539 31.3223 17.9231 31.3905 19.0574 31.3905L19.3092 31.3898L66.3279 31.0272C67.3907 31.0188 68.3148 30.9862 68.8502 30.6638C69.6235 30.1988 69.6682 29.0283 69.6097 27.945C69.5422 26.6903 69.4094 25.5115 68.5428 24.8758C67.705 24.2621 66.1564 24.1878 64.6414 24.165C57.2232 24.0505 46.0116 23.8783 36.1474 23.8783C20.1768 23.8783 16.5252 24.3433 15.7032 24.5792Z" fill="#FF9900"/>
<path d="M19.1031 96C18.7858 96 18.4616 95.9568 18.1295 95.8619C16.2823 95.3317 16.1386 93.2661 16.3686 85.3525C16.4291 83.2474 16.4866 81.2599 16.4221 79.7921C16.3934 79.1488 17.0517 78.6094 17.8925 78.5882C18.7293 78.57 19.4372 79.0699 19.466 79.7132C19.5334 81.2463 19.4749 83.2656 19.4134 85.4041C19.3351 88.1009 19.2221 92.0007 19.5492 93.5035C20.0519 93.1811 20.8481 92.5044 21.326 92.0971C22.6119 91.0017 23.7134 90.0626 25.1768 90.1468C26.4202 90.2241 27.3125 91.0897 28.4418 92.1843C28.6886 92.4233 29.0228 92.7472 29.3321 93.0195C29.8834 90.8302 29.8933 84.8822 29.2855 79.3984C29.2151 78.7566 29.8368 78.193 30.6746 78.1384C31.5005 78.086 32.249 78.5586 32.3214 79.2011C32.9579 84.9558 33.5776 94.7506 30.5685 95.7026C28.7838 96.2685 27.3918 94.9274 26.0513 93.6287C25.736 93.3222 25.2601 92.8617 24.923 92.597C24.5433 92.8443 23.9881 93.3169 23.5905 93.6552C22.3422 94.7172 20.8362 96 19.1031 96Z" fill="#FF9900"/>
<path d="M13.6796 79.9483C12.2916 79.9483 11.1544 79.9392 10.3215 79.9187C9.48075 79.8982 8.82142 79.3604 8.84819 78.7171C8.87397 78.0731 9.58486 77.5535 10.4187 77.5899C15.03 77.7029 29.3975 77.4632 43.292 77.2311C57.2262 76.9989 71.6343 76.7577 76.3279 76.873C77.1687 76.8935 77.828 77.4313 77.8012 78.0746C77.7754 78.7179 77.0398 79.2087 76.2307 79.2019C71.6214 79.0911 57.2529 79.3293 43.3574 79.5607C31.896 79.7518 20.1123 79.9483 13.6796 79.9483Z" fill="#FF9900"/>
<path d="M3.30586 77.5194C3.08476 77.5194 2.8597 77.4822 2.64653 77.4041C1.88905 77.1249 1.56979 76.4285 1.93466 75.849C5.86585 69.5967 24.4946 70.0799 40.9293 70.5055C44.4976 70.598 47.8676 70.6853 50.8173 70.6906C53.8918 70.6929 57.0953 70.6405 60.3186 70.5836C67.8567 70.4494 75.6537 70.3136 82.8032 70.9576C83.638 71.0327 84.2359 71.6115 84.1367 72.251C84.0396 72.8897 83.2861 73.3547 82.4463 73.2713C75.5139 72.6485 67.822 72.782 60.389 72.9132C57.1389 72.9709 53.9305 73.0194 50.8093 73.021C47.8121 73.0149 44.4183 72.9277 40.8262 72.8344C26.8682 72.4733 7.74965 71.9779 4.67905 76.8594C4.4173 77.2766 3.87299 77.5194 3.30586 77.5194Z" fill="#FF9900"/>
<path d="M2.00304 13.2816C1.46269 13.2816 0.940182 13.0616 0.66356 12.6724C0.262014 12.1073 0.53566 11.3995 1.2753 11.0923C2.20233 10.7069 3.51801 10.1911 4.83271 9.67603C6.11171 9.17461 7.38972 8.6747 8.29196 8.29996C9.02664 7.99349 9.95565 8.2021 10.3562 8.76876C10.7578 9.33391 10.4831 10.0417 9.74348 10.3481C8.82537 10.7297 7.52456 11.2395 6.22176 11.75C4.93086 12.256 3.63897 12.762 2.7288 13.1405C2.49779 13.2361 2.24893 13.2816 2.00304 13.2816Z" fill="#FF9900"/>
<path d="M2.42546 18.5871C1.95748 18.5871 1.49644 18.4225 1.19801 18.1122C0.6993 17.5941 0.844055 16.8651 1.52222 16.4836C3.54185 15.3464 5.89462 14.5052 8.32869 14.0508C9.14071 13.8937 9.96958 14.2814 10.1689 14.9065C10.3682 15.5315 9.86746 16.1619 9.05048 16.3144C7.00507 16.6967 5.0251 17.4045 3.3267 18.3603C3.05504 18.5135 2.73876 18.5871 2.42546 18.5871Z" fill="#FF9900"/>
<path d="M2.41753 24.4032C1.78101 24.4032 1.18711 24.0952 0.973946 23.6082C0.706248 22.9976 1.13655 22.3376 1.93369 22.1335L8.09768 20.5527C8.89483 20.3448 9.7584 20.6763 10.0251 21.287C10.2928 21.8969 9.8635 22.5576 9.06536 22.7617L2.90137 24.3425C2.74075 24.3843 2.57716 24.4032 2.41753 24.4032Z" fill="#FF9900"/>
<path d="M2.62776 31.2199C2.01205 31.2199 1.43204 30.9323 1.20202 30.4643C0.906562 29.862 1.30513 29.1906 2.09236 28.9638L8.47944 27.1288C9.26667 26.9043 10.1451 27.2077 10.4406 27.81C10.736 28.4123 10.3375 29.0844 9.55023 29.3105L3.16316 31.1455C2.98667 31.1963 2.80623 31.2199 2.62776 31.2199Z" fill="#FF9900"/>
<path d="M2.80019 38.2132C2.3223 38.2132 1.85036 38.041 1.55391 37.7186C1.07007 37.1929 1.23465 36.4662 1.92274 36.0953C4.32607 34.8004 6.96636 33.8013 9.76827 33.1269C10.5743 32.9358 11.426 33.2756 11.6778 33.8885C11.9307 34.5022 11.4845 35.1569 10.6824 35.3496C8.17993 35.9519 5.82319 36.844 3.67566 38.0008C3.40995 38.1442 3.10358 38.2132 2.80019 38.2132Z" fill="#FF9900"/>
<path d="M3.44862 43.6303C2.96974 43.6303 2.45814 43.5575 1.96637 43.3436C1.23466 43.0265 0.976878 42.3157 1.39231 41.7558C1.80079 41.2043 2.71097 41.0071 3.43276 41.3014C3.52992 41.3098 3.73813 41.2832 4.24378 41.1528L10.0915 39.6371C10.8956 39.4323 11.7532 39.7577 12.0229 40.3669C12.2926 40.9768 11.8652 41.6383 11.0691 41.8446L5.22038 43.3602C4.82578 43.4619 4.17438 43.6303 3.44862 43.6303Z" fill="#FF9900"/>
<path d="M2.84681 49.2711C2.25986 49.2711 1.69967 49.0102 1.44982 48.5717C1.11371 47.9823 1.46569 47.2958 2.23705 47.0378L9.42523 44.6369C10.1956 44.3798 11.0939 44.6483 11.43 45.2392C11.7661 45.8287 11.4141 46.5152 10.6428 46.7731L3.45458 49.174C3.25629 49.24 3.05006 49.2711 2.84681 49.2711Z" fill="#FF9900"/>
<path d="M2.98759 56.351C2.41947 56.351 1.87416 56.1068 1.61241 55.6888C1.24953 55.1077 1.57077 54.4121 2.32925 54.1345L10.15 51.2746C10.9055 50.9947 11.8167 51.2427 12.1805 51.8238C12.5434 52.4041 12.2222 53.0998 11.4627 53.3774L3.64394 56.2373C3.43177 56.3146 3.20769 56.351 2.98759 56.351Z" fill="#FF9900"/>
<path d="M3.29592 62.3932C2.70698 62.3932 2.1468 62.1315 1.89794 61.6923C1.56282 61.1021 1.91678 60.4156 2.68814 60.1592L11.1375 57.3547C11.9079 57.099 12.8051 57.3698 13.1403 57.96C13.4754 58.5502 13.1214 59.2367 12.3491 59.4924L3.90171 62.2968C3.7044 62.3621 3.49818 62.3932 3.29592 62.3932Z" fill="#FF9900"/>
<path d="M3.25426 68.7221C2.58006 68.7221 1.96336 68.3769 1.78291 67.8542C1.56776 67.2322 2.05359 66.595 2.86659 66.4304C5.81722 65.8341 8.60425 64.876 11.1494 63.5834C11.8474 63.2276 12.7942 63.3733 13.2602 63.9104C13.7252 64.4459 13.5339 65.1696 12.8329 65.5254C10.0102 66.9591 6.91875 68.0219 3.64391 68.6834C3.51403 68.7099 3.38315 68.7221 3.25426 68.7221Z" fill="#FF9900"/>
</g>
<defs>
<clipPath id="clip0_77_4">
<rect width="86" height="96" fill="white"/>
</clipPath>
</defs>
</svg>
