<svg width="96" height="90" viewBox="0 0 96 90" fill="none" xmlns="http://www.w3.org/2000/svg">
<path d="M70.5 36.5625H25.5C24.7044 36.5625 23.9413 36.7205 23.3787 37.0018C22.8161 37.2831 22.5 37.6647 22.5 38.0625C22.5 38.4603 22.8161 38.8419 23.3787 39.1232C23.9413 39.4045 24.7044 39.5625 25.5 39.5625H70.5C71.2957 39.5625 72.0587 39.4045 72.6213 39.1232C73.1839 38.8419 73.5 38.4603 73.5 38.0625C73.5 37.6647 73.1839 37.2831 72.6213 37.0018C72.0587 36.7205 71.2957 36.5625 70.5 36.5625Z" fill="#FF9900"/>
<path d="M70.5 47.8125H25.5C24.7044 47.8125 23.9413 47.9705 23.3787 48.2518C22.8161 48.5331 22.5 48.9147 22.5 49.3125C22.5 49.7103 22.8161 50.0919 23.3787 50.3732C23.9413 50.6545 24.7044 50.8125 25.5 50.8125H70.5C71.2957 50.8125 72.0587 50.6545 72.6213 50.3732C73.1839 50.0919 73.5 49.7103 73.5 49.3125C73.5 48.9147 73.1839 48.5331 72.6213 48.2518C72.0587 47.9705 71.2957 47.8125 70.5 47.8125Z" fill="#FF9900"/>
<path d="M70.5 59.0625H25.5C24.7044 59.0625 23.9413 59.2205 23.3787 59.5018C22.8161 59.7831 22.5 60.1647 22.5 60.5625C22.5 60.9603 22.8161 61.3419 23.3787 61.6232C23.9413 61.9045 24.7044 62.0625 25.5 62.0625H70.5C71.2957 62.0625 72.0587 61.9045 72.6213 61.6232C73.1839 61.3419 73.5 60.9603 73.5 60.5625C73.5 60.1647 73.1839 59.7831 72.6213 59.5018C72.0587 59.2205 71.2957 59.0625 70.5 59.0625Z" fill="#FF9900"/>
<path d="M70.5 70.3125H25.5C24.7044 70.3125 23.9413 70.4705 23.3787 70.7518C22.8161 71.0331 22.5 71.4147 22.5 71.8125C22.5 72.2103 22.8161 72.5919 23.3787 72.8732C23.9413 73.1545 24.7044 73.3125 25.5 73.3125H70.5C71.2957 73.3125 72.0587 73.1545 72.6213 72.8732C73.1839 72.5919 73.5 72.2103 73.5 71.8125C73.5 71.4147 73.1839 71.0331 72.6213 70.7518C72.0587 70.4705 71.2957 70.3125 70.5 70.3125Z" fill="#FF9900"/>
<path d="M63.5 13.5562V2.956C67.3957 6.60718 70.4142 9.42807 72.7593 11.6196C75.8949 14.5499 77.8263 16.355 79.0408 17.515C79.1006 17.5721 79.1585 17.6275 79.2146 17.6812H68C66.7764 17.6812 65.6209 17.2247 64.7833 16.4394C63.949 15.6573 63.5 14.6179 63.5 13.5562Z" stroke="#FF9900" stroke-width="3"/>
<path d="M80.5 22.0206V22.0219V78.75C80.5 79.8116 80.051 80.851 79.2167 81.6332C78.3791 82.4184 77.2236 82.875 76 82.875H19C17.7764 82.875 16.6209 82.4184 15.7833 81.6332C14.949 80.851 14.5 79.8116 14.5 78.75V5.625C14.5 4.56337 14.949 3.524 15.7833 2.74183C16.6209 1.95659 17.7764 1.5 19 1.5L58.51 1.5L58.5111 1.5C59.1152 1.49956 59.7114 1.6108 60.265 1.82535C60.8182 2.03977 61.3149 2.35191 61.7291 2.73962C61.7293 2.7398 61.7295 2.74 61.7297 2.74019L79.2185 19.1359C79.6321 19.5241 79.9545 19.9796 80.1723 20.4736L81.5448 19.8683L80.1723 20.4736C80.3901 20.9673 80.5004 21.4927 80.5 22.0206Z" stroke="#FF9900" stroke-width="3"/>
</svg>
