<svg width="18" height="20" viewBox="0 0 18 20" fill="none" xmlns="http://www.w3.org/2000/svg">
<path d="M17.5938 16.3482C15.4684 15.3884 15.3876 11.2684 15.386 11.1645V8.40047C15.386 5.74027 13.7604 3.45278 11.4505 2.47879C11.4455 1.11111 10.3316 0 8.96288 0C7.59416 0 6.48026 1.11118 6.47526 2.47873C4.16539 3.45272 2.5398 5.74021 2.5398 8.40041V11.1644C2.5383 11.2684 2.45738 15.3883 0.331921 16.3481C0.0897966 16.4575 -0.0432755 16.7211 0.012705 16.9808C0.0686201 17.2406 0.298326 17.4261 0.564046 17.4261H5.95229C6.06275 18.0338 6.35007 18.5991 6.78951 19.0569C7.37317 19.665 8.14504 19.9999 8.96279 19.9999C9.7806 19.9999 10.5525 19.665 11.1361 19.0569C11.5756 18.599 11.8629 18.0337 11.9733 17.4261H17.3615C17.6272 17.4261 17.8569 17.2406 17.9129 16.9808C17.9689 16.7211 17.8359 16.4575 17.5938 16.3482ZM14.794 14.3745C15.0175 15.0519 15.3338 15.7322 15.7825 16.2982H2.14323C2.59179 15.7322 2.90817 15.052 3.1316 14.3745H14.794ZM8.96288 1.12794C9.582 1.12794 10.1055 1.54396 10.2693 2.11102C9.8473 2.0235 9.41037 1.97736 8.96288 1.97736C8.5154 1.97736 8.07847 2.02347 7.65651 2.11102C7.82033 1.54399 8.3438 1.12794 8.96288 1.12794ZM3.66774 11.1679V8.40037C3.66774 5.48066 6.04311 3.1053 8.96288 3.1053C11.8827 3.1053 14.258 5.48066 14.258 8.40037V11.1725C14.2588 11.2573 14.272 12.1489 14.4967 13.2465H3.42895C3.65379 12.1479 3.66706 11.2547 3.66774 11.1679ZM8.96288 18.8721C8.10207 18.8721 7.35079 18.2514 7.10965 17.4261H10.8161C10.5749 18.2514 9.82377 18.8721 8.96288 18.8721Z" fill="black"/>
<path d="M8.96288 3.89659C6.53641 3.89659 4.56232 5.87061 4.56232 8.29706C4.56232 8.60853 4.81483 8.86104 5.12631 8.86104C5.43778 8.86104 5.69029 8.60853 5.69029 8.29706C5.69029 6.49258 7.15837 5.02453 8.96291 5.02453C9.27438 5.02453 9.5269 4.77202 9.5269 4.46055C9.52687 4.14904 9.27435 3.89659 8.96288 3.89659Z" fill="black"/>
</svg>
