<svg width="446" height="166" viewBox="0 0 446 166" fill="none" xmlns="http://www.w3.org/2000/svg">
<g clip-path="url(#clip0_122_3)">
<line x1="2.50002" y1="9.80594" x2="2.50002" y2="159.806" stroke="black"/>
<line x1="2.00002" y1="160.306" x2="439" y2="160.306" stroke="black"/>
<line x1="3" y1="124.306" x2="8" y2="124.306" stroke="black"/>
<line x1="2.00002" y1="80.3059" x2="7.00001" y2="80.3059" stroke="black"/>
<line x1="2.00002" y1="36.3059" x2="7.00001" y2="36.3059" stroke="black"/>
<line x1="61.5" y1="160.806" x2="61.5" y2="155.806" stroke="black"/>
<line x1="301.5" y1="160.806" x2="301.5" y2="155.806" stroke="black"/>
<line x1="181.5" y1="160.806" x2="181.5" y2="155.806" stroke="black"/>
<path d="M121.5 160.806V155.806" stroke="black"/>
<line x1="241.5" y1="160.806" x2="241.5" y2="155.806" stroke="black"/>
<line x1="361.5" y1="160.806" x2="361.5" y2="155.806" stroke="black"/>
<line x1="421.5" y1="160.806" x2="421.5" y2="155.806" stroke="black"/>
<path d="M-0.573835 8.80594L2.5 2.89034L5.57383 8.80594H-0.573835Z" fill="black" stroke="black"/>
<path d="M439 156.232L444.916 159.306L439 162.38V156.232Z" fill="black" stroke="black"/>
</g>
<defs>
<clipPath id="clip0_122_3">
<rect width="446" height="166" fill="white"/>
</clipPath>
</defs>
</svg>
