<svg width="20" height="20" viewBox="0 0 20 20" fill="none" xmlns="http://www.w3.org/2000/svg">
<path d="M19.4706 7.81804H16.6442C16.5336 7.48194 16.3983 7.15692 16.2402 6.84535L18.2396 4.84595C18.4463 4.63923 18.4463 4.30414 18.2396 4.09747L15.9024 1.76027C15.6956 1.55355 15.3605 1.55355 15.1539 1.76027L13.1545 3.75967C12.8429 3.60152 12.5179 3.46625 12.1818 3.35558V0.529284C12.1819 0.236954 11.9449 0 11.6526 0H8.34732C8.05504 0 7.81804 0.236954 7.81804 0.529241V3.35558C7.48194 3.4662 7.15697 3.60152 6.84535 3.75967L4.84599 1.76031C4.63928 1.5536 4.30418 1.5536 4.09751 1.76031L1.76031 4.09751C1.5536 4.30418 1.5536 4.63932 1.76031 4.84599L3.75967 6.84535C3.60152 7.15692 3.4662 7.48194 3.35558 7.81804H0.529284C0.236954 7.81804 0 8.05504 0 8.34732V11.6526C0 11.9449 0.236954 12.1818 0.529284 12.1818H3.35563C3.46629 12.5179 3.60157 12.8429 3.75971 13.1545L1.76035 15.1539C1.55364 15.3605 1.55364 15.6957 1.76035 15.9024L4.09756 18.2396C4.30427 18.4462 4.63937 18.4462 4.84604 18.2396L6.84539 16.2402C7.15697 16.3983 7.48194 16.5337 7.81808 16.6443V19.4706C7.81808 19.7629 8.05504 19.9999 8.34737 19.9999H11.6526C11.9449 19.9999 12.1819 19.7629 12.1819 19.4706V16.6443C12.518 16.5337 12.843 16.3983 13.1546 16.2402L15.154 18.2396C15.3607 18.4462 15.6958 18.4462 15.9024 18.2396L18.2396 15.9024C18.4464 15.6956 18.4464 15.3605 18.2396 15.1539L16.2403 13.1545C16.3984 12.8429 16.5337 12.518 16.6444 12.1819H19.4707C19.763 12.1819 20 11.9449 20 11.6526V8.34737C19.9999 8.05504 19.7629 7.81804 19.4706 7.81804ZM9.99994 12.6349C8.54465 12.6349 7.3649 11.4552 7.3649 9.99989C7.3649 8.54461 8.54465 7.36486 9.99994 7.36486C11.4552 7.36486 12.635 8.54461 12.635 9.99989C12.635 11.4552 11.4552 12.6349 9.99994 12.6349Z" fill="#FF9900"/>
</svg>
