<svg width="30" height="30" viewBox="0 0 30 30" fill="none" xmlns="http://www.w3.org/2000/svg">
<g clip-path="url(#clip0_200_3)">
<path d="M11.835 13.1448L6.40494 18.5749L10.9818 23.1518L16.4119 17.7217L11.835 13.1448Z" fill="#FF9900"/>
<path d="M5.42174 20.3584L1.24512 22.8215L0 29.5569L6.73541 28.3118L9.19852 24.1351L5.42174 20.3584ZM4.69846 26.2421C4.31648 26.6241 3.69703 26.6241 3.315 26.2421C2.93297 25.8601 2.93297 25.2407 3.315 24.8586C3.69703 24.4766 4.31643 24.4766 4.69846 24.8586C5.08049 25.2407 5.08049 25.8601 4.69846 26.2421Z" fill="#FF9900"/>
<path d="M27.4325 7.52301L27.9978 6.9577C29.4861 5.46936 29.4861 3.04774 27.9978 1.5594C26.5094 0.0710608 24.0878 0.0710608 22.5995 1.5594L12.8081 11.3507L18.2064 16.749L26.0222 8.93325L27.1795 10.0905L17.6253 19.6447L19.0356 21.0549L30 10.0905L27.4325 7.52301Z" fill="#FF9900"/>
</g>
<defs>
<clipPath id="clip0_200_3">
<rect width="30" height="30" fill="white"/>
</clipPath>
</defs>
</svg>
