<svg width="20" height="20" viewBox="0 0 20 20" fill="none" xmlns="http://www.w3.org/2000/svg">
<path d="M12.4414 0C13.082 0 13.5742 0.179688 13.9219 0.539062C14.2695 0.898438 14.4414 1.35937 14.4414 1.91797C14.4414 2.58594 14.1797 3.17188 13.6602 3.67969C13.1406 4.1875 12.5078 4.44141 11.7617 4.44141C11.1211 4.44141 10.6289 4.26953 10.2813 3.92188C9.93359 3.57422 9.77344 3.09375 9.80078 2.48047C9.80078 1.86719 10.0352 1.30078 10.5 0.78125C10.9648 0.261719 11.6133 0 12.4414 0ZM8.32031 20C6.98828 20 6.62891 18.8125 7.24219 16.4414L8.44141 11.3633C8.62891 10.6172 8.62891 10.2422 8.44141 10.2422C8.28125 10.2422 7.92188 10.3633 7.36328 10.6016C6.80469 10.8398 6.32422 11.0938 5.92188 11.3633L5.40234 10.4844C6.60156 9.44531 7.86328 8.60547 9.18359 7.96484C10.5039 7.32422 11.5117 7.00391 12.2031 7.00391C13.2422 7.00391 13.4844 8.08203 12.9219 10.2422L11.5234 15.5625C11.3086 16.4141 11.3516 16.8438 11.6445 16.8438C12.2305 16.8438 13.0195 16.4453 14.0039 15.6445L14.6055 16.4453C13.4844 17.5938 12.3203 18.4727 11.1055 19.0859C9.89062 19.6992 8.96094 20 8.32031 20Z" fill="#FF9900"/>
</svg>
