<svg width="27" height="27" viewBox="0 0 27 27" fill="none" xmlns="http://www.w3.org/2000/svg">
<mask id="path-1-inside-1_93_10" fill="white">
<path d="M12.6562 25.3125H1.68752V1.68757H12.6562C13.122 1.68757 13.5 1.30955 13.5 0.843848C13.5 0.37815 13.1219 0.00012207 12.6562 0.00012207H0.843726C0.378028 0.00012207 0 0.37808 0 0.843848V26.1563C0 26.622 0.378028 27 0.843726 27H12.6562C13.1219 27 13.4999 26.622 13.4999 26.1563C13.5 25.6905 13.1219 25.3125 12.6562 25.3125Z"/>
</mask>
<path d="M1.68752 25.3125H-2.31248V29.3125H1.68752V25.3125ZM1.68752 1.68757V-2.31243H-2.31248V1.68757H1.68752ZM13.4999 26.1563L9.49989 26.1557V26.1563H13.4999ZM12.6562 21.3125H1.68752V29.3125H12.6562V21.3125ZM5.68752 25.3125V1.68757H-2.31248V25.3125H5.68752ZM1.68752 5.68757H12.6562V-2.31243H1.68752V5.68757ZM12.6562 5.68757C15.3314 5.68757 17.5 3.51847 17.5 0.843848H9.49997C9.49997 -0.899376 10.9127 -2.31243 12.6562 -2.31243V5.68757ZM17.5 0.843848C17.5 -1.83099 15.3311 -3.99988 12.6562 -3.99988V4.00012C10.9128 4.00012 9.49997 2.58729 9.49997 0.843848H17.5ZM12.6562 -3.99988H0.843726V4.00012H12.6562V-3.99988ZM0.843726 -3.99988C-1.83089 -3.99988 -4 -1.83128 -4 0.843848H4C4 2.58744 2.58695 4.00012 0.843726 4.00012L0.843726 -3.99988ZM-4 0.843848V26.1563H4V0.843848H-4ZM-4 26.1563C-4 28.8314 -1.83089 31 0.843726 31V23C2.58695 23 4 24.4127 4 26.1563H-4ZM0.843726 31H12.6562V23H0.843726V31ZM12.6562 31C15.3313 31 17.4999 28.8309 17.4999 26.1563H9.49989C9.49989 24.413 10.9126 23 12.6562 23V31ZM17.4999 26.1569C17.5003 23.4811 15.3307 21.3125 12.6562 21.3125V29.3125C10.9131 29.3125 9.49963 27.8998 9.49989 26.1557L17.4999 26.1569Z" fill="#FF9900" mask="url(#path-1-inside-1_93_10)"/>
<mask id="path-3-inside-2_93_10" fill="white">
<path d="M26.7552 12.911L20.9334 7.00566C20.6035 6.67238 20.0694 6.67322 19.7403 7.00566C19.4104 7.3381 19.4104 7.87807 19.7403 8.21051L24.1278 12.6613H6.75254C6.28677 12.6613 5.90881 13.0427 5.90881 13.5135C5.90881 13.9843 6.28684 14.3657 6.75254 14.3657H24.1278L19.7403 18.8165C19.4104 19.1498 19.4104 19.6889 19.7403 20.0213C20.0702 20.3546 20.6043 20.3546 20.9334 20.0213L26.7544 14.116C27.0801 13.7877 27.0835 13.2384 26.7552 12.911Z"/>
</mask>
<path d="M26.7552 12.911L23.9067 15.7192L23.9185 15.7312L23.9304 15.7431L26.7552 12.911ZM20.9334 7.00566L23.7819 4.19744L23.7761 4.19162L20.9334 7.00566ZM19.7403 7.00566L22.5795 9.82329L22.5831 9.81965L19.7403 7.00566ZM19.7403 8.21051L22.5889 5.40238L22.5795 5.39289L19.7403 8.21051ZM24.1278 12.6613V16.6613H33.6878L26.9764 9.85318L24.1278 12.6613ZM24.1278 14.3657L26.9764 17.1738L33.6878 10.3657L24.1278 10.3657V14.3657ZM19.7403 18.8165L22.5831 21.6305L22.5889 21.6246L19.7403 18.8165ZM19.7403 20.0213L22.5831 17.2073L22.5795 17.2037L19.7403 20.0213ZM20.9334 20.0213L23.7797 22.8317L23.7821 22.8293L20.9334 20.0213ZM26.7544 14.116L23.915 11.2985L23.9057 11.308L26.7544 14.116ZM29.6037 10.1028L23.7819 4.19745L18.0849 9.81387L23.9067 15.7192L29.6037 10.1028ZM23.7761 4.19162C21.8783 2.27445 18.7893 2.28049 16.8975 4.19166L22.5831 9.81965C21.3494 11.0659 19.3286 11.0703 18.0906 9.81969L23.7761 4.19162ZM16.9011 4.18803C15.0235 6.08007 15.0235 9.1361 16.9011 11.0281L22.5795 5.39289C23.7973 6.62004 23.7973 8.59613 22.5795 9.82328L16.9011 4.18803ZM16.8917 11.0186L21.2792 15.4694L26.9764 9.85318L22.5889 5.4024L16.8917 11.0186ZM24.1278 8.66129H6.75254V16.6613H24.1278V8.66129ZM6.75254 8.66129C4.04109 8.66129 1.90881 10.8703 1.90881 13.5135H9.90881C9.90881 15.2151 8.53245 16.6613 6.75254 16.6613V8.66129ZM1.90881 13.5135C1.90881 16.157 4.04138 18.3657 6.75254 18.3657V10.3657C8.5323 10.3657 9.90881 11.8117 9.90881 13.5135H1.90881ZM6.75254 18.3657H24.1278V10.3657H6.75254V18.3657ZM21.2792 11.5576L16.8917 16.0084L22.5889 21.6246L26.9764 17.1738L21.2792 11.5576ZM16.8976 16.0025C15.0266 17.8925 15.0215 20.945 16.9011 22.839L22.5795 17.2037C23.7993 18.4328 23.7942 20.407 22.5831 21.6305L16.8976 16.0025ZM16.8976 22.8354C18.7908 24.7479 21.8825 24.7532 23.7797 22.8317L18.087 17.2109C19.3261 15.9561 21.3497 15.9613 22.5831 17.2073L16.8976 22.8354ZM23.7821 22.8293L29.6031 16.924L23.9057 11.308L18.0847 17.2133L23.7821 22.8293ZM29.5937 16.9334C31.4462 15.0666 31.4959 11.99 29.58 10.079L23.9304 15.7431C22.671 14.4869 22.714 12.5089 23.9151 11.2985L29.5937 16.9334Z" fill="#FF9900" mask="url(#path-3-inside-2_93_10)"/>
</svg>
