<svg width="20" height="20" viewBox="0 0 20 20" fill="none" xmlns="http://www.w3.org/2000/svg">
<path d="M18.6904 0H6.04599C5.32267 0 4.73634 0.624435 4.73634 1.39476V5.16029C4.95532 5.16029 13.8727 5.16029 13.954 5.16029C15.3983 5.16029 16.5733 6.41167 16.5733 7.94982C16.5733 9.54817 16.5733 9.76919 16.5733 11.3158H18.6904C19.4136 11.3158 20 10.6914 20 9.92108V1.39476C20 0.624481 19.4137 0 18.6904 0Z" fill="#FF9900"/>
<path d="M13.954 6.55487H1.30965C0.586329 6.55487 0 7.17931 0 7.94963V16.4759C0 17.2463 0.586329 17.8707 1.30965 17.8707H5.34043L6.6296 19.503C6.87844 19.8181 7.24527 20 7.63188 20C8.01848 20 8.38527 19.8181 8.63415 19.503L9.92332 17.8707H13.9541C14.6774 17.8707 15.2638 17.2463 15.2638 16.4759V7.94963C15.2637 7.17935 14.6773 6.55487 13.954 6.55487ZM6.47507 14.3291H3.06287C2.70123 14.3291 2.40805 14.0168 2.40805 13.6317C2.40805 13.2466 2.70123 12.9343 3.06287 12.9343H6.47511C6.83675 12.9343 7.12993 13.2466 7.12993 13.6317C7.12989 14.0169 6.8367 14.3291 6.47507 14.3291ZM11.8528 11.445H3.06287C2.70123 11.445 2.40805 11.1328 2.40805 10.7476C2.40805 10.3625 2.70123 10.0502 3.06287 10.0502H11.8528C12.2145 10.0502 12.5076 10.3625 12.5076 10.7476C12.5076 11.1328 12.2145 11.445 11.8528 11.445Z" fill="#FF9900"/>
</svg>
