<svg width="20" height="20" viewBox="0 0 20 20" fill="none" xmlns="http://www.w3.org/2000/svg">
<g clip-path="url(#clip0_53_57)">
<path d="M7.45312 10C7.45312 9.82031 7.39844 9.71875 7.28906 9.69531C7.25781 9.6875 7.21484 9.68359 7.16016 9.68359H6.79688L4.05469 2.96875H3.32812L0.75 9.68359H0V10H2.13281C2.13281 9.82031 2.07812 9.71875 1.96875 9.69531C1.92969 9.6875 1.88672 9.68359 1.83984 9.68359H1.21875L2.07422 7.43359H4.44141L5.32031 9.68359H4.51172V10H7.45312ZM4.30078 7.08203H2.20312L3.24609 4.33984L4.30078 7.08203Z" fill="#FF9900"/>
<path d="M15.2461 4.55078C15.2461 3.88672 14.9023 3.42578 14.2148 3.16797C13.8555 3.03516 13.4336 2.96875 12.9492 2.96875H9.30469V3.28516H10.2422V9.68359H9.30469V10H13.1016C14.1484 10 14.9062 9.68359 15.375 9.05078C15.6172 8.72266 15.7383 8.35938 15.7383 7.96094C15.7383 7.17969 15.3438 6.64453 14.5547 6.35547C14.3438 6.27734 14.1133 6.21875 13.8633 6.17969C14.5195 5.96094 14.9492 5.58594 15.1523 5.05469C15.2148 4.88281 15.2461 4.71484 15.2461 4.55078ZM12.4102 3.28516C13.293 3.30078 13.7383 3.75391 13.7461 4.64453C13.7461 5.28516 13.5156 5.70703 13.0547 5.91016C12.8828 5.98828 12.6875 6.02734 12.4688 6.02734H11.6836V3.28516H12.4102ZM12.7383 6.35547C13.3945 6.35547 13.832 6.64844 14.0508 7.23438C14.1289 7.4375 14.168 7.66406 14.168 7.91406C14.168 8.71875 13.9023 9.25781 13.3711 9.53125C13.1602 9.63281 12.918 9.68359 12.6445 9.68359H11.6836V6.35547H12.7383Z" fill="#FF9900"/>
<path d="M6.39844 19.5195C6.39062 19.8242 6.45312 19.9961 6.58594 20.0352C6.64062 20.0508 6.71094 20.0586 6.79688 20.0586V17.7852H6.44531C6.11719 18.9648 5.49219 19.6211 4.57031 19.7539C4.4375 19.7695 4.30469 19.7773 4.17188 19.7773C2.76562 19.7617 2.05859 18.6523 2.05078 16.4492C2.05078 14.7383 2.52734 13.6953 3.48047 13.3203C3.71484 13.2344 3.96875 13.1914 4.24219 13.1914C5.125 13.1914 5.76172 13.625 6.15234 14.4922C6.23828 14.6953 6.31641 14.9219 6.38672 15.1719H6.76172L6.72656 12.9102C6.53125 12.9102 6.41406 12.9766 6.375 13.1094C6.35938 13.1875 6.35156 13.3008 6.35156 13.4492C5.70312 13.0508 4.95312 12.8516 4.10156 12.8516C2.8125 12.8516 1.82812 13.3086 1.14844 14.2227C0.664062 14.8789 0.421875 15.6289 0.421875 16.4727C0.421875 17.4883 0.746094 18.3398 1.39453 19.0273C2.08203 19.7539 2.98438 20.1172 4.10156 20.1172C4.90625 20.1094 5.67188 19.9102 6.39844 19.5195Z" fill="#FF9900"/>
<path d="M9.30469 12.9688V13.2852H10.2422V19.6836H9.30469V20H12.7148C13.7852 20 14.668 19.6719 15.3633 19.0156C16.0508 18.3672 16.3945 17.5273 16.3945 16.4961C16.3945 15.1836 15.9062 14.2109 14.9297 13.5781C14.2969 13.1719 13.5547 12.9688 12.7031 12.9688H9.30469ZM12.7148 13.2852C13.668 13.2852 14.2891 13.7461 14.5781 14.668C14.7188 15.1367 14.7891 15.7305 14.7891 16.4492C14.7891 18.2383 14.332 19.2812 13.418 19.5781C13.207 19.6484 12.9727 19.6836 12.7148 19.6836H11.6836V13.2852H12.7148Z" fill="#FF9900"/>
</g>
<defs>
<clipPath id="clip0_53_57">
<rect width="20" height="20" fill="white"/>
</clipPath>
</defs>
</svg>
