<svg width="20" height="20" viewBox="0 0 20 20" fill="none" xmlns="http://www.w3.org/2000/svg">
<g clip-path="url(#clip0_53_28)">
<path d="M18.5732 6.91031C18.4923 6.30233 18.4809 5.25518 19.0456 4.90356C19.0557 4.89712 19.0632 4.8878 19.072 4.87981C19.5337 4.73214 19.8532 4.52491 19.6024 4.24605L12.792 2.194L1.76435 3.72719C1.76435 3.72719 0.501552 3.90768 0.614361 5.8696C0.6756 6.9374 1.01051 7.46182 1.30339 7.7199L0.398472 7.99262C0.147308 8.27147 0.466754 8.47877 0.928495 8.6262C0.937269 8.63443 0.94467 8.64368 0.954936 8.65013C1.51928 9.00205 1.50842 10.0491 1.42724 10.6572C-0.600155 11.2329 0.127611 11.4205 0.127611 11.4205L0.572341 11.5281C0.25952 11.8107 -0.0511519 12.3468 0.00704312 13.3635C0.119912 15.325 1.15716 15.4604 1.15716 15.4604L8.37358 17.806L19.2659 15.1677C19.2659 15.1677 19.9939 14.9798 17.966 14.404C17.8844 13.7969 17.8731 12.75 18.4388 12.3972C18.4491 12.3909 18.4567 12.3814 18.4651 12.3735C18.9269 12.2259 19.2461 12.0188 18.9952 11.74L18.5218 11.597C18.8375 11.4066 19.3118 10.909 19.3861 9.61641C19.4374 8.72731 19.2054 8.20659 18.937 7.90004L19.8727 7.67359C19.8728 7.67395 20.6008 7.48605 18.5732 6.91031ZM9.4624 6.88518L11.2941 6.50873L17.4841 5.23668L18.4064 5.04699C18.1117 5.58632 18.124 6.32442 18.1728 6.79881C18.1835 6.90613 18.1958 7.00414 18.2077 7.07863L17.1983 7.32961L9.3854 9.27321L9.4624 6.88518ZM1.59425 8.79416L2.51635 8.98384L8.46102 10.2059L8.98036 10.3122L10.5378 10.6323L10.6146 13.0204L2.58464 11.0226L1.793 10.8259C1.80464 10.7513 1.81694 10.6534 1.8281 10.5458C1.87657 10.0718 1.88916 9.33349 1.59425 8.79416ZM1.236 5.77518C1.22484 5.25333 1.31783 4.87593 1.50579 4.68409C1.6254 4.56161 1.76656 4.53613 1.86338 4.53613C1.91453 4.53613 1.95136 4.54323 1.95386 4.54323L6.70538 6.09229L9.07598 6.86518L8.99821 9.26992L2.34774 7.40541L1.99678 7.30711C1.98388 7.30347 1.9664 7.30096 1.95291 7.30036C1.92551 7.29839 1.268 7.23787 1.236 5.77518ZM8.39077 16.7641L1.38952 14.8013C1.37657 14.7975 1.35926 14.795 1.34577 14.7943C1.31789 14.7925 0.660081 14.732 0.628268 13.2697C0.616927 12.7472 0.710398 12.3701 0.897995 12.1781C1.01791 12.0556 1.15913 12.0302 1.25576 12.0302C1.30703 12.0302 1.34374 12.037 1.34642 12.037L8.46807 14.3593L8.39077 16.7641ZM17.565 14.2927C17.576 14.4003 17.5883 14.4982 17.6003 14.5728L8.77779 16.7675L8.8549 14.3794L10.7411 13.9917L11.0196 14.059L12.0637 13.7197L16.8763 12.7308L17.7989 12.541C17.5039 13.0802 17.5162 13.8186 17.565 14.2927ZM18.051 11.0472C18.0349 11.0475 18.0189 11.0497 18.0038 11.0545L17.3384 11.2407L11.0027 13.0173L10.9252 10.6125L13.0039 9.93454L18.0371 8.29308C18.0378 8.29278 18.3019 8.23411 18.4958 8.43126C18.6834 8.62309 18.7765 9.00049 18.7656 9.52234C18.7327 10.9846 18.0749 11.0453 18.051 11.0472Z" fill="#FF9900"/>
</g>
<defs>
<clipPath id="clip0_53_28">
<rect width="20" height="20" fill="white"/>
</clipPath>
</defs>
</svg>
